<svg xmlns="http://www.w3.org/2000/svg" xmlns:xlink="http://www.w3.org/1999/xlink" xml:space="preserve" width="800" height="600"><g class="subplot xy"><rect x="80" y="100" width="416" height="420" style="stroke-width: 0px; fill: rgb(255, 255, 255); fill-opacity: 1;"/><g transform="translate(80,100)"><path class="ygrid crisp" d="M0,0h416" transform="translate(0,339.03)" style="stroke: rgb(238, 238, 238); stroke-opacity: 1; stroke-width: 1px;"/><path class="ygrid crisp" d="M0,0h416" transform="translate(0,258.05)" style="stroke: rgb(238, 238, 238); stroke-opacity: 1; stroke-width: 1px;"/><path class="ygrid crisp" d="M0,0h416" transform="translate(0,177.08)" style="stroke: rgb(238, 238, 238); stroke-opacity: 1; stroke-width: 1px;"/><path class="ygrid crisp" d="M0,0h416" transform="translate(0,96.11)" style="stroke: rgb(238, 238, 238); stroke-opacity: 1; stroke-width: 1px;"/><path class="ygrid crisp" d="M0,0h416" transform="translate(0,15.13)" style="stroke: rgb(238, 238, 238); stroke-opacity: 1; stroke-width: 1px;"/></g><g/><g transform="translate(80,100)"><path class="yzl zl crisp" d="M0,0h416" transform="translate(0,420)" style="stroke: rgb(68, 68, 68); stroke-opacity: 1; stroke-width: 1px;"/></g><g/><svg preserveAspectRatio="none" x="80" y="100" width="416" height="420" viewBox="0 0 416 420" style="fill: none;"><g class="maplayer"/><g class="barlayer"><g class="trace bars" style="opacity: 1;"><g class="points"><path d="M2.77,420V252.91H8.32V420Z" style="stroke-width: 0px; fill: rgb(31, 119, 180); fill-opacity: 1;"/><path d="M30.51,420V310.75H36.05V420Z" style="stroke-width: 0px; fill: rgb(31, 119, 180); fill-opacity: 1;"/><path d="M58.24,420V150.09H63.79V420Z" style="stroke-width: 0px; fill: rgb(31, 119, 180); fill-opacity: 1;"/><path d="M85.97,420V21H91.52V420Z" style="stroke-width: 0px; fill: rgb(31, 119, 180); fill-opacity: 1;"/><path d="M113.71,420V172.58H119.25V420Z" style="stroke-width: 0px; fill: rgb(31, 119, 180); fill-opacity: 1;"/><path d="M141.44,420V156.51H146.99V420Z" style="stroke-width: 0px; fill: rgb(31, 119, 180); fill-opacity: 1;"/><path d="M169.17,420V201.5H174.72V420Z" style="stroke-width: 0px; fill: rgb(31, 119, 180); fill-opacity: 1;"/><path d="M196.91,420V195.07H202.45V420Z" style="stroke-width: 0px; fill: rgb(31, 119, 180); fill-opacity: 1;"/><path d="M224.64,420V21.56H230.19V420Z" style="stroke-width: 0px; fill: rgb(31, 119, 180); fill-opacity: 1;"/><path d="M252.37,420V188.65H257.92V420Z" style="stroke-width: 0px; fill: rgb(31, 119, 180); fill-opacity: 1;"/><path d="M280.11,420V265.76H285.65V420Z" style="stroke-width: 0px; fill: rgb(31, 119, 180); fill-opacity: 1;"/><path d="M307.84,420V214.35H313.39V420Z" style="stroke-width: 0px; fill: rgb(31, 119, 180); fill-opacity: 1;"/><path d="M335.57,420V227.21H341.12V420Z" style="stroke-width: 0px; fill: rgb(31, 119, 180); fill-opacity: 1;"/><path d="M363.31,420V26.87H368.85V420Z" style="stroke-width: 0px; fill: rgb(31, 119, 180); fill-opacity: 1;"/><path d="M391.04,420V207.93H396.59V420Z" style="stroke-width: 0px; fill: rgb(31, 119, 180); fill-opacity: 1;"/></g></g><g class="trace bars" style="opacity: 1;"><g class="points"><path d="M8.32,420V270.84H13.87V420Z" style="stroke-width: 0px; fill: rgb(255, 127, 14); fill-opacity: 1;"/><path d="M36.05,420V313.46H41.6V420Z" style="stroke-width: 0px; fill: rgb(255, 127, 14); fill-opacity: 1;"/><path d="M63.79,420V164.29H69.33V420Z" style="stroke-width: 0px; fill: rgb(255, 127, 14); fill-opacity: 1;"/><path d="M91.52,420V158.03H97.07V420Z" style="stroke-width: 0px; fill: rgb(255, 127, 14); fill-opacity: 1;"/><path d="M119.25,420V30.7H124.8V420Z" style="stroke-width: 0px; fill: rgb(255, 127, 14); fill-opacity: 1;"/><path d="M146.99,420V164.29H152.53V420Z" style="stroke-width: 0px; fill: rgb(255, 127, 14); fill-opacity: 1;"/><path d="M174.72,420V228.22H180.27V420Z" style="stroke-width: 0px; fill: rgb(255, 127, 14); fill-opacity: 1;"/><path d="M202.45,420V228.22H208V420Z" style="stroke-width: 0px; fill: rgb(255, 127, 14); fill-opacity: 1;"/><path d="M230.19,420V57.75H235.73V420Z" style="stroke-width: 0px; fill: rgb(255, 127, 14); fill-opacity: 1;"/><path d="M257.92,420V249.53H263.47V420Z" style="stroke-width: 0px; fill: rgb(255, 127, 14); fill-opacity: 1;"/><path d="M285.65,420V249.53H291.2V420Z" style="stroke-width: 0px; fill: rgb(255, 127, 14); fill-opacity: 1;"/><path d="M313.39,420V206.91H318.93V420Z" style="stroke-width: 0px; fill: rgb(255, 127, 14); fill-opacity: 1;"/><path d="M341.12,420V228.22H346.67V420Z" style="stroke-width: 0px; fill: rgb(255, 127, 14); fill-opacity: 1;"/><path d="M368.85,420V134.21H374.4V420Z" style="stroke-width: 0px; fill: rgb(255, 127, 14); fill-opacity: 1;"/><path d="M396.59,420V249.53H402.13V420Z" style="stroke-width: 0px; fill: rgb(255, 127, 14); fill-opacity: 1;"/></g></g><g class="trace bars" style="opacity: 1;"><g class="points"><path d="M13.87,420V152.96H19.41V420Z" style="stroke-width: 0px; fill: rgb(44, 160, 44); fill-opacity: 1;"/><path d="M41.6,420V196.03H47.15V420Z" style="stroke-width: 0px; fill: rgb(44, 160, 44); fill-opacity: 1;"/><path d="M69.33,420V109.89H74.88V420Z" style="stroke-width: 0px; fill: rgb(44, 160, 44); fill-opacity: 1;"/><path d="M97.07,420V195.07H102.61V420Z" style="stroke-width: 0px; fill: rgb(44, 160, 44); fill-opacity: 1;"/><path d="M124.8,420V411.9H130.35V420Z" style="stroke-width: 0px; fill: rgb(44, 160, 44); fill-opacity: 1;"/><path d="M152.53,420V92.66H158.08V420Z" style="stroke-width: 0px; fill: rgb(44, 160, 44); fill-opacity: 1;"/><path d="M180.27,420V178.8H185.81V420Z" style="stroke-width: 0px; fill: rgb(44, 160, 44); fill-opacity: 1;"/><path d="M208,420V127.12H213.55V420Z" style="stroke-width: 0px; fill: rgb(44, 160, 44); fill-opacity: 1;"/><path d="M235.73,420V49.59H241.28V420Z" style="stroke-width: 0px; fill: rgb(44, 160, 44); fill-opacity: 1;"/><path d="M263.47,420V135.73H269.01V420Z" style="stroke-width: 0px; fill: rgb(44, 160, 44); fill-opacity: 1;"/><path d="M291.2,420V144.35H296.75V420Z" style="stroke-width: 0px; fill: rgb(44, 160, 44); fill-opacity: 1;"/><path d="M318.93,420V135.73H324.48V420Z" style="stroke-width: 0px; fill: rgb(44, 160, 44); fill-opacity: 1;"/><path d="M346.67,420V127.12H352.21V420Z" style="stroke-width: 0px; fill: rgb(44, 160, 44); fill-opacity: 1;"/><path d="M374.4,420V30.7H379.95V420Z" style="stroke-width: 0px; fill: rgb(44, 160, 44); fill-opacity: 1;"/><path d="M402.13,420V152.96H407.68V420Z" style="stroke-width: 0px; fill: rgb(44, 160, 44); fill-opacity: 1;"/></g></g><g class="trace bars" style="opacity: 1;"><g class="points"><path d="M19.41,420V195.07H24.96V420Z" style="stroke-width: 0px; fill: rgb(214, 39, 40); fill-opacity: 1;"/><path d="M47.15,420V307.54H52.69V420Z" style="stroke-width: 0px; fill: rgb(214, 39, 40); fill-opacity: 1;"/><path d="M74.88,420V195.07H80.43V420Z" style="stroke-width: 0px; fill: rgb(214, 39, 40); fill-opacity: 1;"/><path d="M158.08,420V172.58H163.63V420Z" style="stroke-width: 0px; fill: rgb(214, 39, 40); fill-opacity: 1;"/><path d="M185.81,420V195.07H191.36V420Z" style="stroke-width: 0px; fill: rgb(214, 39, 40); fill-opacity: 1;"/><path d="M213.55,420V195.07H219.09V420Z" style="stroke-width: 0px; fill: rgb(214, 39, 40); fill-opacity: 1;"/><path d="M241.28,420V105.1H246.83V420Z" style="stroke-width: 0px; fill: rgb(214, 39, 40); fill-opacity: 1;"/><path d="M269.01,420V195.07H274.56V420Z" style="stroke-width: 0px; fill: rgb(214, 39, 40); fill-opacity: 1;"/><path d="M296.75,420V195.07H302.29V420Z" style="stroke-width: 0px; fill: rgb(214, 39, 40); fill-opacity: 1;"/><path d="M324.48,420V240.06H330.03V420Z" style="stroke-width: 0px; fill: rgb(214, 39, 40); fill-opacity: 1;"/><path d="M352.21,420V195.07H357.76V420Z" style="stroke-width: 0px; fill: rgb(214, 39, 40); fill-opacity: 1;"/><path d="M379.95,420V116.35H385.49V420Z" style="stroke-width: 0px; fill: rgb(214, 39, 40); fill-opacity: 1;"/><path d="M407.68,420V217.57H413.23V420Z" style="stroke-width: 0px; fill: rgb(214, 39, 40); fill-opacity: 1;"/></g></g></g><g class="errorlayer"><g class="errorbars"/><g class="errorbars"/><g class="errorbars"/><g class="errorbars"/></g><g class="boxlayer"/><g class="scatterlayer"/></svg><g/><path class="crisp" transform="translate(80,100)" d="M-1,420.5h418" style="fill: none; stroke-width: 1px; stroke: rgb(0, 0, 0); stroke-opacity: 0;"/><path class="crisp" transform="translate(80,100)" d="M-0.5,-1v421" stroke-width="1px" style="fill: none; stroke: rgb(0, 0, 0); stroke-opacity: 0;"/><g/><g transform="translate(80,100)"><g class="xtick" data-bb="2539"><text text-anchor="start" x="0" y="434" transform="translate(13.87,0) rotate(90,0,428)" style="font-family: 'Open sans', verdana, arial, sans-serif; font-size: 12px; fill: rgb(68, 68, 68); fill-opacity: 1;" data-bb="2523">capella</text></g><g class="xtick" data-bb="2540"><text text-anchor="start" x="0" y="434" transform="translate(41.6,0) rotate(90,0,428)" style="font-family: 'Open sans', verdana, arial, sans-serif; font-size: 12px; fill: rgb(68, 68, 68); fill-opacity: 1;" data-bb="2524">cdt</text></g><g class="xtick" data-bb="2541"><text text-anchor="start" x="0" y="434" transform="translate(69.33,0) rotate(90,0,428)" style="font-family: 'Open sans', verdana, arial, sans-serif; font-size: 12px; fill: rgb(68, 68, 68); fill-opacity: 1;" data-bb="2525">ease</text></g><g class="xtick" data-bb="2542"><text text-anchor="start" x="0" y="434" transform="translate(97.07,0) rotate(90,0,428)" style="font-family: 'Open sans', verdana, arial, sans-serif; font-size: 12px; fill: rgb(68, 68, 68); fill-opacity: 1;" data-bb="2526">egit</text></g><g class="xtick" data-bb="2543"><text text-anchor="start" x="0" y="434" transform="translate(124.8,0) rotate(90,0,428)" style="font-family: 'Open sans', verdana, arial, sans-serif; font-size: 12px; fill: rgb(68, 68, 68); fill-opacity: 1;" data-bb="2527">emf-compare</text></g><g class="xtick" data-bb="2544"><text text-anchor="start" x="0" y="434" transform="translate(152.53,0) rotate(90,0,428)" style="font-family: 'Open sans', verdana, arial, sans-serif; font-size: 12px; fill: rgb(68, 68, 68); fill-opacity: 1;" data-bb="2528">gendoc</text></g><g class="xtick" data-bb="2545"><text text-anchor="start" x="0" y="434" transform="translate(180.27,0) rotate(90,0,428)" style="font-family: 'Open sans', verdana, arial, sans-serif; font-size: 12px; fill: rgb(68, 68, 68); fill-opacity: 1;" data-bb="2529">hudson</text></g><g class="xtick" data-bb="2546"><text text-anchor="start" x="0" y="434" transform="translate(208,0) rotate(90,0,428)" style="font-family: 'Open sans', verdana, arial, sans-serif; font-size: 12px; fill: rgb(68, 68, 68); fill-opacity: 1;" data-bb="2530">kitalpha</text></g><g class="xtick" data-bb="2547"><text text-anchor="start" x="0" y="434" transform="translate(235.73,0) rotate(90,0,428)" style="font-family: 'Open sans', verdana, arial, sans-serif; font-size: 12px; fill: rgb(68, 68, 68); fill-opacity: 1;" data-bb="2531">mylyn</text></g><g class="xtick" data-bb="2548"><text text-anchor="start" x="0" y="434" transform="translate(263.47,0) rotate(90,0,428)" style="font-family: 'Open sans', verdana, arial, sans-serif; font-size: 12px; fill: rgb(68, 68, 68); fill-opacity: 1;" data-bb="2532">oomph</text></g><g class="xtick" data-bb="2549"><text text-anchor="start" x="0" y="434" transform="translate(291.2,0) rotate(90,0,428)" style="font-family: 'Open sans', verdana, arial, sans-serif; font-size: 12px; fill: rgb(68, 68, 68); fill-opacity: 1;" data-bb="2533">papyrus</text></g><g class="xtick" data-bb="2550"><text text-anchor="start" x="0" y="434" transform="translate(318.93,0) rotate(90,0,428)" style="font-family: 'Open sans', verdana, arial, sans-serif; font-size: 12px; fill: rgb(68, 68, 68); fill-opacity: 1;" data-bb="2534">reqcycle</text></g><g class="xtick" data-bb="2551"><text text-anchor="start" x="0" y="434" transform="translate(346.67,0) rotate(90,0,428)" style="font-family: 'Open sans', verdana, arial, sans-serif; font-size: 12px; fill: rgb(68, 68, 68); fill-opacity: 1;" data-bb="2535">sirius</text></g><g class="xtick" data-bb="2552"><text text-anchor="start" x="0" y="434" transform="translate(374.4,0) rotate(90,0,428)" style="font-family: 'Open sans', verdana, arial, sans-serif; font-size: 12px; fill: rgb(68, 68, 68); fill-opacity: 1;" data-bb="2536">sisu</text></g><g class="xtick" data-bb="2553"><text text-anchor="start" x="0" y="434" transform="translate(402.13,0) rotate(90,0,428)" style="font-family: 'Open sans', verdana, arial, sans-serif; font-size: 12px; fill: rgb(68, 68, 68); fill-opacity: 1;" data-bb="2537">subversive</text></g></g><g transform="translate(80,100)"><g class="ytick" data-bb="2555"><text text-anchor="end" x="-2" y="6" transform="translate(0,420)" style="font-family: 'Open sans', verdana, arial, sans-serif; font-size: 12px; fill: rgb(68, 68, 68); fill-opacity: 1;">0</text></g><g class="ytick" data-bb="2556"><text text-anchor="end" x="-2" y="6" transform="translate(0,339.03)" style="font-family: 'Open sans', verdana, arial, sans-serif; font-size: 12px; fill: rgb(68, 68, 68); fill-opacity: 1;">20</text></g><g class="ytick" data-bb="2557"><text text-anchor="end" x="-2" y="6" transform="translate(0,258.05)" style="font-family: 'Open sans', verdana, arial, sans-serif; font-size: 12px; fill: rgb(68, 68, 68); fill-opacity: 1;">40</text></g><g class="ytick" data-bb="2558"><text text-anchor="end" x="-2" y="6" transform="translate(0,177.08)" style="font-family: 'Open sans', verdana, arial, sans-serif; font-size: 12px; fill: rgb(68, 68, 68); fill-opacity: 1;">60</text></g><g class="ytick" data-bb="2559"><text text-anchor="end" x="-2" y="6" transform="translate(0,96.11)" style="font-family: 'Open sans', verdana, arial, sans-serif; font-size: 12px; fill: rgb(68, 68, 68); fill-opacity: 1;">80</text></g><g class="ytick" data-bb="2560"><text text-anchor="end" x="-2" y="6" transform="translate(0,15.13)" style="font-family: 'Open sans', verdana, arial, sans-serif; font-size: 12px; fill: rgb(68, 68, 68); fill-opacity: 1;">100</text></g></g><g/></g><g transform="translate(80,100)"/><g class="infolayer"><g class="g-gtitle"><text class="gtitle" x="400" y="50" text-anchor="middle" style="font-family: 'Open sans', verdana, arial, sans-serif; font-size: 17px; fill: rgb(68, 68, 68); opacity: 1;">Percentage of practices acquired (PMD, FindBugs) in Eclipse projects</text></g><g class="g-xtitle" data-bb="2538" transform="translate(0,17.671875)"><text class="xtitle" x="288" y="572" text-anchor="middle" style="font-family: 'Open sans', verdana, arial, sans-serif; font-size: 14px; fill: rgb(68, 68, 68); opacity: 1;">Projects</text></g><g class="g-ytitle" data-bb="2554"><text class="ytitle" transform="rotate(-90,42,310) translate(0, 0)" x="42" y="310" text-anchor="middle" style="font-family: 'Open sans', verdana, arial, sans-serif; font-size: 14px; fill: rgb(68, 68, 68); opacity: 1;">Percentage of rules never violated</text></g><svg class="legend" x="504" y="100" width="284" height="86"><rect class="bg" x="0" y="0" width="284" height="86" style="stroke: rgb(68, 68, 68); stroke-opacity: 1; fill: rgb(255, 255, 255); fill-opacity: 1; stroke-width: 0px;"/><g class="traces" transform="translate(0,14.5)"><g class="legendfill"/><g class="legendlines"/><g class="legendsymbols" style="opacity: 1;"><g class="legendpoints"><path class="legendbar" d="M6,6H-6V-6H6Z" transform="translate(20,0)" style="stroke-width: 0px; fill: rgb(31, 119, 180); fill-opacity: 1;"/></g></g><text class="legendtext" x="40" y="4.680000000000001" style="text-anchor: start; font-family: 'Open sans', verdana, arial, sans-serif; font-size: 12px; fill: rgb(68, 68, 68); fill-opacity: 1;" data-bb="2519">Practices acquired related to Analysability</text></g><g class="traces" transform="translate(0,33.5)"><g class="legendfill"/><g class="legendlines"/><g class="legendsymbols" style="opacity: 1;"><g class="legendpoints"><path class="legendbar" d="M6,6H-6V-6H6Z" transform="translate(20,0)" style="stroke-width: 0px; fill: rgb(255, 127, 14); fill-opacity: 1;"/></g></g><text class="legendtext" x="40" y="4.680000000000001" style="text-anchor: start; font-family: 'Open sans', verdana, arial, sans-serif; font-size: 12px; fill: rgb(68, 68, 68); fill-opacity: 1;" data-bb="2520">Practices acquired related to Changeability</text></g><g class="traces" transform="translate(0,52.5)"><g class="legendfill"/><g class="legendlines"/><g class="legendsymbols" style="opacity: 1;"><g class="legendpoints"><path class="legendbar" d="M6,6H-6V-6H6Z" transform="translate(20,0)" style="stroke-width: 0px; fill: rgb(44, 160, 44); fill-opacity: 1;"/></g></g><text class="legendtext" x="40" y="4.680000000000001" style="text-anchor: start; font-family: 'Open sans', verdana, arial, sans-serif; font-size: 12px; fill: rgb(68, 68, 68); fill-opacity: 1;" data-bb="2521">Practices acquired related to Reliability</text></g><g class="traces" transform="translate(0,71.5)"><g class="legendfill"/><g class="legendlines"/><g class="legendsymbols" style="opacity: 1;"><g class="legendpoints"><path class="legendbar" d="M6,6H-6V-6H6Z" transform="translate(20,0)" style="stroke-width: 0px; fill: rgb(214, 39, 40); fill-opacity: 1;"/></g></g><text class="legendtext" x="40" y="4.680000000000001" style="text-anchor: start; font-family: 'Open sans', verdana, arial, sans-serif; font-size: 12px; fill: rgb(68, 68, 68); fill-opacity: 1;" data-bb="2522">Practices acquired related to Reusability</text></g></svg></g><g class="hoverlayer" style="pointer-events: none;"/><text class="js-plot-link-container" text-anchor="end" x="793" y="591" style="font-family: 'Open Sans', Arial, sans-serif; font-size: 12px; fill: rgb(68, 68, 68);"><tspan class="js-link-to-tool"/><tspan class="js-link-spacer"/><tspan class="js-sourcelinks"/></text></svg>